HIERARCHY
ROOT Hips
{
	OFFSET 15.585500 22.159004 44.358299
	CHANNELS 6 Xposition Yposition Zposition Zrotation Xrotation Yrotation
	JOINT Chest
	{
		OFFSET -0.128500 0.160400 6.566002
		CHANNELS 6 Xposition Yposition Zposition Zrotation Xrotation Yrotation
		JOINT Chest2
		{
			OFFSET 0.000000 0.000000 3.554802
			CHANNELS 6 Xposition Yposition Zposition Zrotation Xrotation Yrotation
			JOINT Neck
			{
				OFFSET 0.000000 0.000000 8.267998
				CHANNELS 6 Xposition Yposition Zposition Zrotation Xrotation Yrotation
				JOINT Head
				{
					OFFSET 0.000000 0.000002 2.173897
					CHANNELS 6 Xposition Yposition Zposition Zrotation Xrotation Yrotation
					End Site
					{
						OFFSET 0.000000 0.000000 7.718697
					}
				}
			}
			JOINT LeftCollar
			{
				OFFSET 2.057500 0.117599 5.946301
				CHANNELS 6 Xposition Yposition Zposition Zrotation Xrotation Yrotation
				JOINT LeftShoulder
				{
					OFFSET 4.957699 0.000000 0.000000
					CHANNELS 6 Xposition Yposition Zposition Zrotation Xrotation Yrotation
					JOINT LeftElbow
					{
						OFFSET 0.000000 0.000000 -8.465500
						CHANNELS 6 Xposition Yposition Zposition Zrotation Xrotation Yrotation
						JOINT LeftWrist
						{
							OFFSET 0.000000 -0.000002 -14.594898
							CHANNELS 6 Xposition Yposition Zposition Zrotation Xrotation Yrotation
							End Site
							{
								OFFSET 0.000000 0.000000 -2.173901
							}
						}
					}
				}
			}
			JOINT RightCollar
			{
				OFFSET -3.048500 -0.728800 6.604099
				CHANNELS 6 Xposition Yposition Zposition Zrotation Xrotation Yrotation
				JOINT RightShoulder
				{
					OFFSET -3.710299 0.000000 0.000000
					CHANNELS 6 Xposition Yposition Zposition Zrotation Xrotation Yrotation
					JOINT RightElbow
					{
						OFFSET 0.000000 0.000000 -10.450901
						CHANNELS 6 Xposition Yposition Zposition Zrotation Xrotation Yrotation
						JOINT RightWrist
						{
							OFFSET 0.000000 0.000000 -12.539200
							CHANNELS 6 Xposition Yposition Zposition Zrotation Xrotation Yrotation
							End Site
							{
								OFFSET 0.000000 -0.000002 -2.173901
							}
						}
					}
				}
			}
		}
	}
	JOINT LeftHip
	{
		OFFSET 2.442599 -0.601400 -2.767502
		CHANNELS 6 Xposition Yposition Zposition Zrotation Xrotation Yrotation
		JOINT LeftKnee
		{
			OFFSET 0.000000 -0.000002 -17.033703
			CHANNELS 6 Xposition Yposition Zposition Zrotation Xrotation Yrotation
			JOINT LeftAnkle
			{
				OFFSET 0.000000 -0.000002 -19.318800
				CHANNELS 6 Xposition Yposition Zposition Zrotation Xrotation Yrotation
				End Site
				{
					OFFSET 0.000000 -8.281900 0.000000
				}
			}
		}
	}
	JOINT RightHip
	{
		OFFSET -3.126200 -0.601400 -2.283501
		CHANNELS 6 Xposition Yposition Zposition Zrotation Xrotation Yrotation
		JOINT RightKnee
		{
			OFFSET 0.000000 -0.000002 -16.919401
			CHANNELS 6 Xposition Yposition Zposition Zrotation Xrotation Yrotation
			JOINT RightAnkle
			{
				OFFSET 0.000000 -0.000002 -18.035900
				CHANNELS 6 Xposition Yposition Zposition Zrotation Xrotation Yrotation
				End Site
				{
					OFFSET 0.000000 -9.230099 0.000000
				}
			}
		}
	}
}
MOTION
Frames: 10
Frame Time: 0.041667
24.405899 41.693901 7.816498 -0.923997 -4.827937 -1.448327 -0.128497 0.160402 6.565999 -0.550596 29.212518 4.760257 -0.000001 -0.000002 3.554811 0.833375 -10.799932 -0.956053 -0.000004 0.000003 8.267996 38.475658 5.890009 -15.694448 -0.000004 0.000005 2.173898 5.344530 -3.478717 5.391187 2.057503 0.117603 5.946300 -8.060585 -3.146386 23.375038 4.957690 0.000000 0.000002 11.191831 60.527784 -113.210877 -0.000001 0.000002 -8.465500 1097.209129 9.471115 744.418274 0.000001 -0.000002 -14.594894 -1114.278482 -7.008875 -390.100572 -3.048502 -0.728794 6.604099 36.029818 11.829351 -13.457484 -3.710296 0.000003 0.000000 -21.127054 36.189006 73.457114 -0.000003 0.000001 -10.450891 1235.437514 -179.636639 1259.925873 0.000000 0.000004 -12.539193 214.312758 179.366710 -146.343510 2.442600 -0.601399 -2.767509 120.247106 -8.752490 92.649344 -0.000001 -0.000008 -17.033703 -487.091280 21.573969 480.528998 0.000002 -0.000002 -19.318804 -181.308847 138.799594 639.881519 -3.126196 -0.601396 -2.283503 -141.367936 -10.601541 -99.725912 0.000004 -0.000004 -16.919390 505.978173 13.880617 -147.927103 -0.000000 -0.000001 -18.035896 321.695326 23.901014 -214.392261
24.408199 41.701599 7.814106 -0.905631 -4.895521 -1.432555 -0.128504 0.160402 6.566004 -0.554012 29.371258 4.680744 0.000000 -0.000003 3.554806 0.794315 -10.734947 -0.956329 0.000000 0.000005 8.267989 37.746771 6.712447 -15.733189 -0.000002 0.000007 2.173889 5.211518 -3.290333 5.310333 2.057503 0.117604 5.946301 -8.321635 -3.050781 23.638479 4.957695 -0.000004 0.000003 11.046778 60.140608 -113.008198 0.000003 0.000005 -8.465502 1094.535738 8.264792 745.690656 0.000000 -0.000006 -14.594894 -1114.217502 -7.041563 -388.525011 -3.048503 -0.728797 6.604099 36.020929 11.917587 -13.439391 -3.710290 -0.000003 -0.000002 -20.590480 37.253949 72.823641 0.000004 -0.000001 -10.450889 1237.400565 -179.466513 1259.771347 0.000004 0.000008 -12.539193 214.549807 179.362380 -147.673894 2.442595 -0.601397 -2.767506 120.164365 -8.941053 92.573549 0.000000 -0.000006 -17.033703 -486.945988 21.669841 480.469439 0.000003 0.000000 -19.318802 -181.416395 138.741988 639.746773 -3.126196 -0.601392 -2.283497 -141.401937 -10.560676 -99.632652 0.000000 0.000000 -16.919394 505.615627 13.541567 -147.727320 0.000000 -0.000004 -18.035894 321.296279 23.893001 -214.374694
24.408001 41.714405 7.812000 -0.812153 -4.921615 -1.419583 -0.128496 0.160404 6.566006 -0.644799 29.457858 4.657390 0.000002 0.000002 3.554811 0.785387 -10.755595 -0.957243 0.000004 -0.000004 8.268001 37.087186 7.592617 -16.002966 0.000001 0.000001 2.173897 4.980955 -3.142852 5.329782 2.057505 0.117600 5.946301 -8.694598 -2.732373 24.265907 4.957693 -0.000005 0.000005 11.720564 59.951965 -113.705137 0.000001 0.000008 -8.465492 1092.261121 7.052967 746.880093 -0.000004 0.000000 -14.594897 -1114.178160 -7.401864 -386.867351 -3.048498 -0.728804 6.604100 36.195286 12.130942 -14.225856 -3.710294 -0.000003 0.000002 -20.302181 38.786814 72.785952 0.000002 0.000003 -10.450891 1238.688356 -179.221582 1259.572342 0.000003 -0.000001 -12.539197 214.861263 179.424712 -148.279418 2.442598 -0.601393 -2.767498 120.046858 -8.986414 92.546386 -0.000002 -0.000002 -17.033701 -486.938994 21.771460 480.463046 0.000003 -0.000005 -19.318800 -181.544242 138.668317 639.577275 -3.126198 -0.601396 -2.283495 -141.500879 -10.488821 -99.562923 0.000001 0.000002 -16.919394 505.258927 13.208490 -147.520215 -0.000002 -0.000001 -18.035900 320.897341 23.882981 -214.354040
24.407299 41.723701 7.810898 -0.757127 -4.944808 -1.385410 -0.128500 0.160403 6.566011 -0.686933 29.532256 4.625187 -0.000000 -0.000006 3.554801 0.424539 -10.715962 -0.941702 -0.000001 0.000008 8.268002 36.642783 8.435827 -16.235886 0.000003 -0.000000 2.173898 4.840421 -2.852503 5.263863 2.057510 0.117607 5.946303 -9.045300 -2.716790 24.676908 4.957694 -0.000003 0.000004 12.593586 59.948038 -114.153218 -0.000005 0.000002 -8.465497 1089.663027 5.590843 747.932598 0.000002 -0.000001 -14.594901 -1114.257390 -7.663357 -385.283075 -3.048499 -0.728794 6.604104 36.668110 12.302587 -14.807898 -3.710295 -0.000007 0.000002 -19.690180 40.592217 72.422968 0.000004 -0.000001 -10.450888 1239.749931 -178.746160 1259.300555 0.000002 0.000003 -12.539192 214.921847 179.506046 -150.422772 2.442597 -0.601395 -2.767501 119.983952 -9.012335 92.543763 0.000001 -0.000003 -17.033703 -486.960686 21.846157 480.460150 0.000001 0.000001 -19.318804 -181.639947 138.609537 639.458375 -3.126199 -0.601392 -2.283495 -141.578237 -10.448492 -99.425076 0.000001 -0.000006 -16.919397 504.586509 12.658510 -147.193486 -0.000001 -0.000002 -18.035896 320.252325 23.857648 -214.309384
24.405899 41.734299 7.810303 -0.750453 -4.981504 -1.337921 -0.128501 0.160400 6.566012 -0.666899 29.626594 4.552282 0.000002 -0.000003 3.554811 0.240754 -10.648807 -0.972615 0.000001 0.000002 8.268000 36.029415 9.343061 -16.400886 -0.000003 0.000002 2.173899 4.673998 -2.738375 5.180239 2.057507 0.117607 5.946299 -9.698181 -2.429803 24.727213 4.957693 -0.000007 0.000005 12.552207 59.566271 -113.941912 -0.000000 0.000003 -8.465500 1089.290590 5.273606 749.662876 0.000000 -0.000002 -14.594891 -1117.114158 -7.277093 -384.445066 -3.048502 -0.728795 6.604098 36.670572 12.446612 -14.891438 -3.710292 0.000001 -0.000000 -18.431334 42.613195 71.595115 -0.000003 0.000005 -10.450896 1240.570319 -178.221478 1259.058275 0.000007 0.000005 -12.539192 215.113666 179.756345 -152.321128 2.442597 -0.601396 -2.767500 119.939665 -9.198692 92.521579 0.000002 0.000002 -17.033707 -486.846923 21.939076 480.443320 0.000000 0.000002 -19.318802 -181.740269 138.550141 639.299095 -3.126199 -0.601398 -2.283497 -141.581516 -10.447083 -99.262975 0.000000 -0.000003 -16.919395 503.920319 12.152444 -146.880568 -0.000002 -0.000003 -18.035900 319.641023 23.830848 -214.262980
24.403095 41.746605 7.808601 -0.783470 -5.037943 -1.273218 -0.128504 0.160393 6.566003 -0.616235 29.765818 4.540368 0.000000 -0.000008 3.554807 0.034585 -10.620643 -1.022992 -0.000003 0.000010 8.267998 35.241310 10.231772 -16.526114 0.000006 0.000003 2.173896 4.595189 -2.663751 5.180300 2.057507 0.117604 5.946309 -10.161710 -2.236354 24.835989 4.957702 0.000001 0.000004 12.439222 59.085624 -113.719385 -0.000009 0.000003 -8.465504 1089.319441 5.294002 751.043011 -0.000001 0.000008 -14.594893 -1120.355930 -7.579344 -382.919885 -3.048503 -0.728792 6.604102 36.859953 12.470482 -15.502830 -3.710293 -0.000004 -0.000004 -18.097659 44.334410 71.608024 0.000001 -0.000001 -10.450895 1241.773416 -177.316314 1258.655895 -0.000001 0.000003 -12.539196 214.819654 179.966865 -153.999920 2.442592 -0.601400 -2.767506 119.910145 -9.517303 92.478589 -0.000002 -0.000005 -17.033707 -486.603987 22.024734 480.384143 0.000003 -0.000001 -19.318804 -181.827832 138.489093 639.146098 -3.126203 -0.601401 -2.283501 -141.546395 -10.483666 -99.063684 -0.000003 -0.000007 -16.919395 503.095615 11.544939 -146.543949 -0.000002 -0.000003 -18.035898 318.901806 23.787558 -214.194855
24.395302 41.759499 7.808201 -0.865074 -5.252830 -1.179758 -0.128498 0.160402 6.566004 -0.510093 30.147779 4.508000 0.000001 0.000004 3.554804 -0.328757 -10.537126 -1.097528 -0.000001 0.000001 8.267999 34.681570 11.051828 -16.666162 0.000005 0.000005 2.173897 4.542119 -2.596888 5.082746 2.057502 0.117598 5.946305 -10.254837 -2.394342 25.166225 4.957693 0.000004 0.000007 12.440544 58.655472 -113.720198 0.000000 0.000004 -8.465500 1088.547247 4.990670 752.235398 -0.000004 -0.000001 -14.594891 -1122.625192 -8.151194 -381.384759 -3.048501 -0.728803 6.604103 37.060497 12.458928 -15.335761 -3.710287 0.000000 -0.000003 -17.437384 45.400718 70.900376 0.000000 0.000002 -10.450900 1243.441949 -176.130662 1258.272421 0.000005 0.000006 -12.539197 214.485043 180.381785 -155.841913 2.442596 -0.601389 -2.767502 119.864889 -10.156092 92.294529 0.000001 -0.000004 -17.033705 -486.145107 22.121128 480.296935 0.000001 0.000001 -19.318802 -181.895915 138.436774 638.977584 -3.126197 -0.601396 -2.283497 -141.424763 -10.651149 -98.733192 -0.000001 -0.000004 -16.919399 502.204248 10.913233 -146.190855 0.000000 -0.000003 -18.035898 318.117071 23.740650 -214.120980
24.388597 41.769302 7.808994 -0.964852 -5.427524 -1.089884 -0.128498 0.160397 6.566008 -0.370699 30.458979 4.423534 0.000001 -0.000006 3.554805 -0.690939 -10.417217 -1.170057 0.000000 -0.000003 8.268004 34.133273 11.862207 -16.751217 0.000007 0.000004 2.173904 4.404354 -2.576399 4.936232 2.057502 0.117602 5.946310 -10.460724 -2.657349 25.025577 4.957693 0.000001 0.000007 11.604682 57.875396 -112.683218 0.000001 -0.000000 -8.465499 1088.604183 5.343562 753.459478 -0.000000 -0.000004 -14.594898 -1126.307265 -8.787572 -379.585277 -3.048501 -0.728798 6.604098 36.953943 12.393541 -15.449120 -3.710292 0.000002 0.000000 -17.264920 45.887711 70.983096 0.000002 0.000002 -10.450892 1244.962076 -174.777110 1257.887744 -0.000000 0.000002 -12.539196 214.773427 180.872002 -158.380557 2.442597 -0.601395 -2.767500 119.891349 -10.558807 92.167119 -0.000002 -0.000005 -17.033705 -485.899002 22.151555 480.244753 0.000005 0.000002 -19.318806 -181.906830 138.426187 638.930538 -3.126198 -0.601400 -2.283494 -141.273884 -10.867614 -98.439309 -0.000001 -0.000002 -16.919395 501.481996 10.474641 -145.921678 0.000000 -0.000004 -18.035898 317.563935 23.703697 -214.064959
24.382000 41.780708 7.809097 -1.052297 -5.565670 -1.027715 -0.128504 0.160395 6.566002 -0.260182 30.778499 4.368638 0.000001 0.000001 3.554803 -0.944726 -10.345220 -1.222059 -0.000002 0.000006 8.268000 33.576387 12.635721 -16.875021 0.000003 0.000003 2.173898 4.158436 -2.347279 4.890354 2.057504 0.117603 5.946306 -10.677923 -3.016932 24.825081 4.957698 0.000003 0.000003 10.511783 56.665141 -111.348790 -0.000000 0.000000 -8.465503 1088.206612 5.620837 754.540396 0.000003 0.000001 -14.594898 -1129.829784 -9.827075 -377.321288 -3.048501 -0.728802 6.604102 36.352442 11.954166 -14.295727 -3.710287 -0.000000 -0.000002 -15.709329 47.150073 69.411005 0.000006 -0.000003 -10.450892 1246.244184 -173.247967 1257.605248 0.000003 0.000002 -12.539196 215.148281 181.412352 -160.431991 2.442592 -0.601402 -2.767498 119.935499 -10.792177 92.070233 -0.000005 0.000002 -17.033703 -485.772288 22.149103 480.205247 0.000003 -0.000000 -19.318806 -181.907185 138.403388 638.912014 -3.126199 -0.601398 -2.283499 -141.314182 -13.908552 -98.154852 0.000000 0.000001 -16.919394 497.750309 10.055737 -145.400452 0.000000 -0.000000 -18.035898 316.869606 23.659236 -213.996083
24.376402 41.789509 7.808697 -1.129257 -5.702584 -0.982832 -0.128499 0.160397 6.566000 -0.174836 31.070220 4.360296 0.000001 0.000006 3.554807 -1.198561 -10.320210 -1.277723 -0.000002 -0.000005 8.268003 32.827549 13.476752 -16.897823 0.000005 0.000000 2.173897 4.090241 -2.308903 4.533027 2.057503 0.117599 5.946305 -10.570472 -3.431944 24.899967 4.957697 0.000007 0.000007 9.697042 55.581136 -110.472231 -0.000002 -0.000001 -8.465501 1086.906690 5.247593 755.319693 0.000003 0.000003 -14.594887 -1132.489624 -11.124023 -375.270974 -3.048505 -0.728803 6.604099 36.254207 11.673063 -13.816441 -3.710291 -0.000004 0.000008 -15.499589 47.903904 68.977206 -0.000001 -0.000002 -10.450892 1247.629128 -171.206587 1257.018179 0.000001 0.000005 -12.539193 215.093134 182.228942 -162.428469 2.442591 -0.601397 -2.767508 119.931415 -11.166250 91.945022 -0.000001 -0.000005 -17.033707 -485.487934 22.179417 480.138475 0.000000 0.000001 -19.318804 -181.932662 138.359593 638.831910 -3.126200 -0.601400 -2.283501 -141.193124 -13.876549 -97.881556 -0.000002 -0.000002 -16.919397 496.881400 9.242948 -145.020489 -0.000002 -0.000003 -18.035896 315.925100 23.602890 -213.905733
